<?xml version="1.0" encoding="utf-8"?>
<!-- Generator: Adobe Illustrator 26.4.1, SVG Export Plug-In . SVG Version: 6.00 Build 0)  -->
<svg version="1.1" xmlns="http://www.w3.org/2000/svg" xmlns:xlink="http://www.w3.org/1999/xlink" x="0px" y="0px"
	 viewBox="0 0 500 500" style="enable-background:new 0 0 500 500;" xml:space="preserve">
<style type="text/css">
	.st0{fill:#FFFFFF;}
	.st1{fill:#C97000;}
</style>
<g id="Background">
</g>
<g id="Graphic_Elements">
	<g>
		<path class="st0" d="M366.8,264.9c-0.3-3.4-0.6-6.8-1.2-10.2c-1.3-7.1-3.7-13.9-6.8-20.4c-2.1-4.4-4.5-8.7-7.4-12.6
			c-4.1-5.5-8.9-10.3-14.2-14.7c-6.1-5-12.4-9.7-18.8-14.2c-4.4-3.2-8.5-6.7-12.2-10.7c-5.6-6.1-10.7-12.7-15.7-19.2
			c-2.1-2.7-3.6-5.7-4.9-8.7c-5-11.5-8.1-23.5-9.6-35.9c-1.2-9.6-2.8-19-4.6-28.5c-2-10.8-5.6-21.1-10.3-31c-1.9-4-4-7.9-6.8-11.4
			c-2.4-2.9-5.3-4.9-9.1-5.6c-1-0.2-2.1-0.2-3.1-0.4c-3.9-0.6-7.3,0.5-10.5,2.7c-3.8,2.7-6,6.3-7.6,10.5
			c-5.2,13.4-8.4,27.2-7.8,41.7c0.2,5.7,0.8,11.3,1.8,16.9c2.1,10.5,4.9,20.9,8,31.1c0.9,2.9,1.6,5.8,2.8,8.5
			c1.1,2.4,2.2,4.9,3.2,7.4c4.1,9.8,7.4,19.9,10.8,29.9c0.6,1.9,1.4,3.6,2.4,5.3c1.2,2.1,2.4,4.3,3.5,6.4c2.8,5,5.3,10.2,8.5,14.9
			c0.1,0.2,0.3,0.4,0.4,0.6c0.2,0.3,0.3,0.7,0,1c-0.3,0.2-0.6,0.1-0.8-0.1c-0.5-0.4-1.1-0.8-1.6-1.2c-1.5-1.3-2.8-2.7-4-4.2
			c-0.6-0.8-1.3-1.5-1.9-2.3c0.4,3.1,1,6,1.6,8.9c0.9,4,1.1,8,0.9,12c-0.1,1-0.2,2.1-0.5,3.1c-0.3,1-1,1.1-1.6,0.3
			c-0.5-0.6-0.8-1.2-1.1-1.9c-1.5-3.1-2.9-6.3-3.9-9.7c-1.2-3.8-2.3-7.7-3.4-11.6c-0.4-1.5-0.5-1.5-1.9-1c-4.6,1.7-9.4,3.2-13.8,5.3
			c-5.6,2.6-11.4,4.5-17.4,6c-12.3,3.2-24.8,4.9-37.4,6.4c-7.1,0.9-13.9,2.9-20.4,6.1c-5.4,2.7-9.7,6.8-13.2,11.9
			c-4.7,6.9-5.7,14.5-4.8,22.6c0.8,7.2,2.4,14.2,5.1,20.9c1.1,2.9,2.6,5.7,4.4,8.2c1,1.4,1.9,3,2.8,4.5c0.3,0.6,0.9,1.3,0.3,2
			c-0.6,0.6-1.4,0.2-2-0.1c-1-0.4-2-1-3.3-1.5c0.2,1.9,0.3,3.6,0.3,5.3c0.1,4.4-0.7,8.7-0.9,13.1c-0.2,4.1-0.4,8.3,0.2,12.4
			c0.4,3,1,6,2.6,8.7c2.1,3.5,4.2,7,6.5,10.4c1.6,2.3,3.5,4.4,5.7,6.2c1.7,1.4,3.4,2.8,4.9,4.4c0.4,0.4,0.8,0.8,1,1.3
			c0.2,0.5,0.1,1-0.5,1.2c-0.6,0.2-1.3,0.3-2,0.2c-1.4-0.1-2.8-0.3-4.1-0.7c-0.4-0.1-0.8-0.4-1.2,0.1c0.2,1.3,0.5,2.6,0.6,3.9
			c0.7,5.6,1.3,11.2,2.1,16.8c1.2,8,4.8,14.5,10.8,19.7c1.8,1.6,3.4,3.3,4.9,5.1c0.5,0.5,1.2,1.1,0.8,1.9c-0.4,0.8-1.3,0.5-2,0.6
			c-1.3,0.1-2.6-0.5-4-0.6c-0.1,1.2,0.3,2.1,0.4,3.2c0.3,2.9,0.5,5.8,0.9,8.7c1,7.4,4.6,13.5,9.9,18.7c1.1,1.1,2.3,2,3.7,2.6
			c3.7,1.6,7.6,2.8,11.6,3.3c7.8,1.1,15.5,2.2,23.3,3.7c5.2,1,10.3,2.4,15.5,3.7c6.2,1.5,12.4,2.3,18.7,3.1c7.8,1,14.6-1.1,20.6-5.9
			c3.5-2.8,6-6.4,8.3-10.1c3.6-5.7,6.9-11.5,11.6-16.4c1.3-1.4,2.4-2.9,2.8-4.9c0.7-3.9-0.2-7.5-2-10.9c-0.4-0.7-0.9-1.4-1.8-1.4
			c-1,0-1.2,1-1.4,1.7c-1.3,3-3.1,5.7-4.9,8.3c-2.2,3.2-5,5.8-7.4,8.8c0.6-0.1,1-0.6,1.5-1c2.3-1.8,4.7-3.5,7.3-4.8
			c0.3-0.1,0.5-0.3,0.8-0.4c0.4-0.2,0.9-0.5,1.4-0.1c0.5,0.5,0.1,1-0.2,1.5c-1.3,2.3-2.8,4.4-4.6,6.3c-4.9,5.3-9.7,10.5-15.1,15.3
			c-0.8,0.7-1.7,1.4-2.7,1.9c-0.7,0.4-1.5,0.6-2.2-0.1c-0.7-0.6-0.5-1.3-0.2-2c0.9-2.5,2.5-4.6,4.1-6.7c1.7-2.2,3.8-4.1,5.7-6.1
			c0.2-0.2,0.3-0.4,0.4-0.6c0,0,0,0,0,0c-3.1,1.6-6.2,3.3-8.5,6.1c-0.9,1.1-2,2.1-3.1,3.1c-0.4,0.4-0.8,0.7-1.3,1
			c-0.5,0.3-1,0.5-1.5,0.1c-0.6-0.5-0.5-1.1-0.3-1.7c0.4-1,1.1-1.8,1.7-2.6c0.2-0.3,0.7-0.6,0.4-1.1c-0.8,0-1.6,0-2.4,0
			c-6.2-0.3-12.3-1.5-18.3-3.2c-12.2-3.6-24.5-6.8-36.7-10.5c-5.5-1.7-11.1-2.9-16.6-4.3c-0.7-0.2-1.8-0.2-1.7-1.2
			c0.1-0.8,1.2-0.7,1.9-0.7c4.9-0.2,9.9,0,14.8,0.7c7.8,1.1,15.6,2.8,23.3,4.3c4.9,1,9.7,2.3,14.5,3.7c5.1,1.5,10.1,3.2,15.3,4.1
			c2.3,0.4,4.7,0.9,7.1,0.3c3.8-0.9,7-2.7,9.8-5.4c1.4-1.4,2.6-2.9,4.1-4.1c1.1-0.9,2-2.1,2.8-3.3c1.8-2.7,3.3-5.6,4.6-8.5
			c1.8-4.2,4.2-8.1,6.6-12c2.8-4.3,6.2-8.1,9.5-12.1c1.5-1.9,3.1-3.8,4.3-5.9c1.7-2.9,2.1-5.9,1-9.1c-0.8-2.4-2.2-4.4-4-6.2
			c-2-2.1-4.5-3-7.3-3.4c-1.1-0.2-1.9,0.2-2.5,1.1c-1,1.5-2.1,2.9-3,4.4c-1.5,2.3-2.3,4.9-3,7.5c0.4,0.2,0.6,0,0.8,0
			c0.4-0.1,0.8-0.4,1.2,0c0.3,0.4,0,0.8-0.2,1.2c-0.6,0.8-1.1,1.6-1.7,2.4c-3.7,5-8,9.7-12.2,14.3c-2.4,2.7-4.7,5.4-7.3,7.9
			c-0.7,0.7-1.4,1.3-2.3,1.8c-0.6,0.3-1.3,0.5-1.9,0c-0.6-0.5-0.6-1.2-0.4-1.8c0.1-0.5,0.3-0.9,0.6-1.3c0.8-1.4,1.6-2.7,2.5-4
			c0.2-0.3,0.7-0.6,0.3-1.1c-1.6,0.5-3.1,1.1-4.7,1.6c-3.3,1-6.7,1.9-10.2,1.6c-3.6-0.3-7.2-0.6-10.7-1.3c-6.1-1.2-12.1-3-18-4.6
			c-7.8-2.2-15.3-5.2-23-7.8c-7.6-2.6-15.3-5.1-23.2-6.5c-1.1-0.2-2.1-0.5-3.2-0.9c-0.3-0.1-0.7-0.3-1-0.5c-0.4-0.2-0.8-0.5-0.7-1
			c0.1-0.5,0.6-0.6,1-0.6c0.5,0,1,0,1.5,0c1.5,0.1,2.9,0.3,4.4,0.3c7.3,0.1,14.4,1.3,21.5,2.8c8.8,1.9,17.5,4.5,26.2,6.5
			c7.7,1.8,15.3,4.1,23.1,5.5c6.6,1.2,12.7,0.2,18.4-3.3c4-2.4,7.5-5.4,10.8-8.7c1.2-1.3,2.3-2.7,3-4.3c1.8-4,4.1-7.8,6.1-11.6
			c4.4-8.3,9.2-16.2,14.2-24.1c0.9-1.3,1.6-2.7,2.1-4.2c0.4-1.2,0.6-2.5,0.3-3.8c-0.5-2-1.1-3.9-1.6-5.8c-1.6-6.1-5.4-10.2-11-12.9
			c-1.9-0.9-2.1-0.9-3.4,0.6c-3,3.6-5.9,7.3-8.7,11c-0.3,0.5-0.8,0.9-0.8,1.6c0.6-0.1,1-0.4,1.4-0.6c1.4-0.8,2.9-1.6,4.4-2.2
			c0.5-0.2,1.3-0.7,1.7-0.1c0.4,0.6-0.3,1.1-0.8,1.5c-2.4,2.3-4.8,4.5-7.2,6.7c-4.8,4.2-9.2,8.7-13.4,13.4c-1.5,1.7-3.1,3.2-4.7,4.9
			c-0.6,0.7-1.4,1.2-2.3,1.5c-1.6,0.5-2.4-0.3-2.2-1.9c0-0.2,0.1-0.5-0.2-0.6c-8.8,2.2-12.7,1.9-19,0.8c-9.3-1.6-18.4-4.4-27.1-8.1
			c-12.3-5.2-24.5-10.6-37.3-14.4c-2.3-0.7-4.6-1.7-6.7-2.8c-0.5-0.2-1-0.5-1.4-0.8c-0.3-0.2-0.6-0.5-0.4-0.9
			c0.1-0.3,0.4-0.4,0.7-0.4c2.2-0.4,4.5-0.4,6.7-0.1c4.3,0.5,8.5,1.7,12.7,2.7c5.3,1.3,10.6,2.6,15.7,4.8c10.2,4.3,20.7,8,31.3,11.1
			c6.3,1.8,12.7,3,19.3,2.7c2.1-0.1,4.1-0.5,6-1.3c4.5-1.9,7.8-5.1,10.5-9.1c1-1.5,2-2.9,3.1-4.3c1.4-1.6,2.5-3.3,3.5-5.1
			c1-2,2.3-3.9,3.6-5.7c5.1-7.1,11.2-13.3,17.2-19.6c1.8-2,3.8-3.8,5.4-5.9c2.6-3.4,4.9-7,5.5-11.4c0.4-3.3-0.3-6.5-2.7-9
			c-2.6-2.6-5.7-4.4-9.4-5c-4.2-0.7-8.5-0.7-12.7,0.1c-5.7,1-10.9,3.4-15.7,6.6c-6,3.8-10.8,9-15.6,14.2c-0.5,0.6-0.6,1.1-0.3,1.8
			c0.3,0.6,0.5,1.2,0.7,1.9c0.3,1.8-0.6,2.8-2.4,2.7c-1.1,0-2.2-0.4-3.1-1.1c-1.1-0.8-2.2-1.5-3.2-2.4c-5-4.1-10.1-8.1-15.8-11.2
			c-10.1-5.5-20.4-10.3-31.1-14.6c-4.3-1.7-8.7-2.9-13.3-3c-0.9,0-1.8-0.2-2.7-0.5c-0.6-0.2-1.4-0.5-1.3-1.3
			c0.1-0.8,0.9-0.8,1.5-0.8c5.4-0.1,10.8-0.3,16.3-0.3c4.5,0,9,0.6,13.4,1.2c4.3,0.6,8.7,1.2,12.9,2.6c2.2,0.7,4.3,1.6,6.4,2.7
			c0.8,0.4,1,0.3,1.1-0.7c0-0.2,0-0.5,0-0.7c-0.2-7-0.7-14-2.3-20.8c-0.1-0.4-0.2-0.7-0.2-1.1c0-0.2,0.1-0.5,0.2-0.7
			c0.3-0.2,0.6-0.1,0.8,0.2c0.9,0.9,1.5,1.9,2,3c1.6,3.1,2.8,6.4,4,9.6c1.5,3.9,2.7,8,4.4,11.8c0.6,1.3,1.3,2.5,2.4,3.4
			c3.4,2.4,7.1,3.9,11.4,3.9c1.4,0,2.4-0.5,3.2-1.7c1.6-2.4,3.3-4.8,4.9-7.3c3.2-5.1,6.6-10,10-14.9c0.4-0.6,0.8-1.6,1.6-1.2
			c0.8,0.4,0.2,1.3,0,2c-0.9,2.8-1.7,5.6-2.7,8.3c-0.6,1.6-0.1,3,0.3,4.5c0.2,0.6,0.6,0.7,1.1,0.5c0.3-0.1,0.6-0.2,0.9-0.3
			c6.6-2.6,13.3-3.8,20.4-2.8c5,0.7,9.5,2.3,13.6,5.4c3.1,2.4,5,5.4,5.6,9.3c1,6,0.6,11.6-2.4,17c-1.4,2.5-3.1,4.8-5.1,6.9
			c-2.2,2.2-4.4,4.4-6.5,6.6c-0.6,0.6-1.3,1.3-1.6,2.1c0.5,0.5,1.1,0.5,1.6,0.7c4.6,1.5,8.3,4.3,11,8.3c2.1,3.1,3.2,6.5,4.2,10.1
			c1.4,5,1,9.8-1.6,14.3c-0.7,1.2-0.7,1.3,0.6,1.9c3.7,1.7,7,3.9,10.5,6c0.4,0.2,0.7,0.5,1,0.8c0.5,0.5,0.3,1-0.4,1.1
			c-1,0.1-1.9,0.1-2.9-0.1c-3.1-0.6-6.2-1.4-9.1-2.6c-0.8-0.3-1.6-0.6-2.4-0.9c-0.8-0.3-1.1,0.1-1.4,0.7c-0.3,0.7,0.2,0.8,0.6,1.1
			c1,0.5,1.9,1.1,2.9,1.5c6,2.7,11.7,6.2,18,8.5c0.4,0.1,0.9,0.3,0.9,0.8c0,0.5-0.5,0.7-0.9,0.8c-1.4,0.4-2.7,0.5-4.2,0.4
			c-2.8-0.3-5.5-0.9-8.2-1.9c-1.7-0.6-3.4-1.2-5.4-2c0.8,1.1,1.6,1.5,2.5,1.9c4.7,1.9,9.5,3.9,14.2,5.9c0.5,0.2,1,0.4,1.4,0.8
			c0.6,0.4,0.5,1-0.1,1.3c-0.6,0.3-1.2,0.4-1.8,0.4c-3,0-6.1,0.2-9.1-0.2c-1-0.2-1.9-0.3-2.9-0.3c-0.8-0.1-1,0.2-0.6,1
			c0.6,1.2,1.1,2.5,1.6,3.7c2.1,4.9,1.4,9.6-1.1,14.2c-1.9,3.3-4.3,6.2-6.9,9c-3.8,4.1-7.2,8.4-10.1,13.2c-0.9,1.4-0.8,1.6,0.6,2.3
			c3,1.4,4.7,3.8,5.2,7c0.3,2.1,0.6,4.2,0.8,6.3c0.5,5.1-1,9.5-4.4,13.3c-1.4,1.5-2.6,3.1-3.8,4.7c-0.2,0.3-0.5,0.5-0.2,1.1
			c2.9-0.5,5.8-1.1,8.6-2.1c4.5-1.6,8.4-4.2,12.2-6.9c3.6-2.6,7.1-5.3,10.4-8.4c2.7-2.5,5-5.5,7.3-8.4c4.8-6.1,8.8-12.7,12.5-19.5
			c3.1-5.7,6.1-11.5,8.2-17.7c2.5-7.3,3.9-14.8,5.2-22.4c0.1-0.4,0.3-0.8-0.2-1.2c-0.5,0.4-0.7,0.9-1.1,1.4c-1.4,2-2.8,4-4.2,6
			c-2.3,3-4.8,5.9-7.7,8.3c-0.8,0.7-1.6,1.3-2.6,1.7c-0.3,0.1-0.6,0.2-0.9,0c-0.4-0.3-0.3-0.6-0.2-1c0.1-0.2,0.2-0.4,0.3-0.7
			c2.8-5.3,5.6-10.5,8.8-15.6c3.8-5.9,7.3-12,10.3-18.3c3.4-7.3,5.9-14.8,7.5-22.7c2.2-10.5,3.8-21.1,3.6-31.9
			C367.6,274.5,367.1,269.7,366.8,264.9z M263.9,450.1c0.7-1.2,1.5-2.3,2.4-3.4c2.9-3.4,6-6.5,9.6-9.2c0.5-0.3,1-1,1.6-0.5
			c0.6,0.5,0,1.1-0.3,1.6c-3.3,4.9-6.8,9.6-10.6,14.2c-0.2,0.2-0.4,0.5-0.6,0.6c-0.5,0.4-1.1,0.6-1.7,0.3c-0.7-0.3-0.9-0.9-0.9-1.6
			C263.3,451.3,263.6,450.7,263.9,450.1z M279.7,406.9c-2,3-4.1,6-6.2,9c-1.9,2.6-3.6,5.2-5.7,7.6c-0.4,0.5-0.9,1-1.5,1.3
			c-1.1,0.6-2.1,0-2.1-1.4c0.1-0.9,0.5-1.9,1-2.8c1.7-3,3.9-5.8,6.1-8.4c2.1-2.4,4.3-4.6,6.8-6.6c0.6-0.5,1.5-1.5,2.2-0.9
			C281.2,405.4,280.1,406.2,279.7,406.9z M284.1,392.8c-0.6,0.9-1.1,1.7-1.8,2.5c-3.4,4.6-6.8,9.2-10.3,13.7
			c-2.1,2.9-4.1,5.9-6.4,8.7c-0.5,0.7-1.1,1.3-1.8,1.8c-0.5,0.3-1.1,0.5-1.7,0.1c-0.5-0.4-0.6-0.9-0.6-1.6c0.2-1.2,0.7-2.5,1.2-3.8
			c1.3-2.8,3.1-5.2,4.9-7.7c3.9-5.1,8.1-9.8,13.4-13.6c0.6-0.4,1.2-0.9,1.8-1.2c0.4-0.3,1-0.8,1.5-0.3
			C284.9,391.9,284.4,392.4,284.1,392.8z M261.6,404.4c1.8-3.3,4.1-6.4,6.7-9.1c4.9-5.2,9.8-10.5,15.3-15.1c1.7-1.4,3.4-2.6,5.2-3.7
			c0.4-0.3,0.8-0.5,1.3-0.7c0.3-0.1,0.6-0.2,0.8,0c0.3,0.3,0.2,0.6,0,0.8c-0.5,0.8-1,1.5-1.5,2.3c-2.8,3.8-5.7,7.4-8.9,10.9
			c-5.3,5.9-10.2,12.1-15.3,18.1c-0.5,0.6-1,1.2-1.7,1.6c-1.5,0.9-3,0.1-3-1.9C260.6,406.6,261,405.5,261.6,404.4z M263.5,371.6
			c-0.8-0.3-1.4-1.3-1.4-2.4c0.1-0.9,0.3-1.9,0.7-2.8c1.4-3.7,3.7-6.8,6.2-9.9c3-3.8,6.6-6.9,10.6-9.7c0.6-0.4,1.3-0.9,2.1-1.1
			c0.6-0.2,1,0.2,0.8,0.8c-0.2,0.4-0.4,0.9-0.7,1.3c-5.2,6.9-9.9,14-14.5,21.2c-0.4,0.6-0.7,1.1-1.2,1.6
			C265.2,371.6,264.4,371.9,263.5,371.6z M282,354.3c-4,7-8.1,14-12.1,21c-0.3,0.5-0.6,1-1,1.5c-0.4,0.5-1,0.9-1.8,0.6
			c-0.7-0.3-0.9-0.9-0.9-1.7c0.1-1.2,0.6-2.4,1.2-3.6c1.6-3.4,3.6-6.6,5.9-9.6c2.3-3.2,4.7-6.3,7.6-9c0.5-0.5,1.1-1.5,1.7-1
			C283.2,353,282.3,353.7,282,354.3z M286.1,332c0.4-0.2,0.8-0.4,1.1,0.1c0.3,0.4,0,0.7-0.2,1c-0.5,0.7-1.1,1.5-1.6,2.2
			c-5.2,6.5-10.5,12.9-15.7,19.4c-2.1,2.6-4,5.2-6,7.8c-0.4,0.5-0.7,1-1.1,1.4c-0.5,0.6-1.2,1.1-2.1,0.7c-0.8-0.4-0.8-1.2-0.7-2.1
			c0.3-2.4,1.2-4.7,2.4-7c1.7-3.2,3.9-6,6.2-8.8c4.5-5.3,9.6-10,15.6-13.7C284.7,332.7,285.4,332.4,286.1,332z M256.2,353.1
			c0.2-1.4,0.8-2.9,1.6-4.3c1.7-3,3.8-5.7,6-8.3c3.9-4.6,8-9,12.8-12.7c1.3-0.9,2.6-1.9,3.9-2.7c0.5-0.3,1-0.6,1.6-0.9
			c0.3-0.2,0.7-0.3,1,0c0.3,0.3,0.1,0.7-0.1,1c-0.5,0.8-1,1.7-1.6,2.4c-2.6,3.4-5.3,6.7-8.1,9.8c-4.4,4.9-8.9,9.7-12.5,15.2
			c-0.4,0.6-0.7,1.1-1.1,1.7c-0.5,0.8-1.1,1.5-2.2,1.3C256.6,355.6,256.1,354.6,256.2,353.1z M140.1,264.8c0.6,0,1.1,0.2,1.5,0.6
			c2.2,1.8,4.2,3.9,5.9,6.2c0.1,0.2,0.3,0.4,0.3,0.6c0.2,0.5,0,0.8-0.6,0.8c-0.2,0-0.4-0.1-0.5-0.2c-2.4-1.2-4.8-2.5-6.7-4.4
			c-0.5-0.5-1-1-1.2-1.8C138.4,265.7,139,264.8,140.1,264.8z M136.6,271.4c-0.5-1.3,0.3-2.5,1.7-2.6c1,0,1.7,0.5,2.5,1
			c2.8,2.1,5.4,4.3,8,6.6c1.9,1.7,3.6,3.5,5.4,5.2c0.4,0.4,0.8,0.8,1.1,1.2c0.3,0.4,1,0.8,0.5,1.4c-0.5,0.5-1,0-1.5-0.3
			c-5.7-3.1-11-6.7-16.1-10.7C137.6,272.8,136.9,272.2,136.6,271.4z M137.7,276.8c0.6-0.7,1.3-0.6,2-0.2c0.9,0.5,1.8,1.1,2.6,1.7
			c5.5,4.3,10.9,8.8,16.2,13.4c0.3,0.3,0.7,0.5,0.7,0.9c-0.1,0.2-0.2,0.4-0.4,0.3c-0.4-0.1-0.8-0.3-1.2-0.4
			c-6.3-3.3-12.2-7.1-17.7-11.5c-0.8-0.6-1.6-1.4-2.1-2.3C137.4,278,137.2,277.4,137.7,276.8z M137.9,282.4c0.7-0.7,1.4-0.3,2,0.1
			c1.6,1.1,3.2,2.3,4.7,3.5c6.6,5.4,13.5,10.4,20.3,15.5c0.4,0.3,1.2,0.4,0.9,1.1c-0.2,0.6-1,0.4-1.5,0.4c-1.2-0.1-2.2-0.5-3.3-1.1
			c-2.6-1.3-4.9-2.9-7.3-4.5c-4.2-2.9-8.4-5.9-12.3-9.1c-0.8-0.7-1.6-1.5-2.4-2.2c-0.5-0.5-0.9-1-1.2-1.6
			C137.5,283.8,137.3,283.1,137.9,282.4z M145.6,322.4c0.6,0,1.1,0.2,1.5,0.5c2.9,1.8,5.4,4.2,7.7,6.7c0.2,0.3,0.5,0.6,0.3,1
			c-0.2,0.4-0.7,0.2-1,0.1c-3-1.4-6-3-8.5-5.2c-0.5-0.4-0.9-0.8-1.1-1.4C144.2,323.2,144.7,322.4,145.6,322.4z M201.4,446.4
			c0.2,0.1,0.4,0.2,0.6,0.4c0.6,0.5,0.5,0.9-0.2,1.3c-1,0.5-2,0.4-3,0.4c-1.8,0.1-3.5-0.3-5.2-0.8c-5.4-1.7-10.7-3.7-15.7-6.3
			c-1.4-0.7-2.7-1.5-3.8-2.5c-0.4-0.3-0.8-0.7-1.2-1.1c-0.7-0.9-0.8-1.8-0.3-2.5c0.6-0.9,1.5-1,2.4-0.8c0.6,0.1,1.2,0.4,1.7,0.6
			c6,2.9,12.1,5.5,18.2,8.1C197.1,444.2,199.3,445.4,201.4,446.4z M183.4,428.2c0.3,0.3,0.6,0.6,0.4,1.1c-0.2,0.4-0.7,0.5-1.1,0.4
			c-1.6-0.2-3.1-0.4-5-0.6c0.6,0.7,1.3,0.9,1.9,1.2c3.7,1.8,7.3,3.9,10.9,6c0.5,0.3,1.5,0.6,1.3,1.3c-0.3,0.8-1.2,0.3-1.8,0.3
			c-2.1-0.2-4.2-0.9-6.2-1.6c-2.9-0.9-5.7-2.1-8.5-3.4c-0.5-0.2-1-0.5-1.4-0.8c-0.8-0.6-1.5-1.3-1.4-2.4c0.1-1.2,1-1.5,2.3-1.7
			c-1.1-0.7-2-1.1-2.7-1.8c-0.8-0.9-1-1.8-0.6-2.7c0.5-0.9,1.5-1.3,2.7-1C177.7,423.6,180.6,425.7,183.4,428.2z M188.9,412.7
			c0.2,0.1,0.3,0.4,0.1,0.7c-0.1,0.2-0.4,0.3-0.6,0.3c-0.5-0.1-1-0.2-1.4-0.3c-8.1-2.4-15.8-5.6-22.9-10.2c-1.5-1-2.9-2-3.5-3.8
			c-0.6-1.7,0.5-3.3,2.3-3.2c1,0,1.9,0.5,2.7,1.1c2.5,1.8,5.1,3.6,7.6,5.3c4.7,3.2,9.6,6.3,14.4,9.3
			C188,412,188.5,412.3,188.9,412.7z M175.8,394.1c0.5,0.4,1.3,0.8,1,1.6c-0.4,0.9-1.3,0.3-2,0.2c-1.2-0.3-2.3-0.7-3.4-1
			c0,0.1-0.1,0.2-0.1,0.3c0.7,0.5,1.5,1,2.2,1.4c3.8,2.4,7.5,4.7,11.3,7.1c0.3,0.2,0.6,0.4,0.9,0.6c0.5,0.4,0.3,0.9-0.3,1.1
			c-0.5,0.1-1,0.1-1.4,0c-1.9-0.3-3.7-0.9-5.4-1.7c-6.2-2.9-12-6.4-17.5-10.5c-0.7-0.5-1.3-1-1.9-1.7c-0.4-0.5-0.8-1.1-0.4-1.7
			c0.5-0.8,0.3-1.4-0.2-2.2c-0.5-0.8-0.6-1.7,0-2.6c0.6-0.9,1.6-1,2.6-0.9c0.8,0.1,1.5,0.5,2.2,0.9
			C167.9,387.4,171.9,390.6,175.8,394.1z M170.7,385.5c0.2,0.2,0.4,0.5,0.5,0.8c0.2,0.5,0,0.8-0.6,0.9c-0.3,0-0.6,0-0.9-0.1
			c-3.6-1.2-7.2-2.6-10.2-5c-0.6-0.5-1.2-1-1.5-1.8c-0.5-1.4,0.5-2.8,2-2.8c0.6,0.1,1.1,0.3,1.7,0.6
			C165.2,379.9,168.1,382.5,170.7,385.5z M180.3,364.7c0.2,0.1,0.4,0.3,0.3,0.6c0,0.2-0.2,0.4-0.5,0.5c-0.7,0.1-1.3,0.1-1.6,0.1
			c-2.8,0-5.1-0.6-7.3-1.3c-6.2-1.9-11.6-5.2-16.9-8.8c-2.5-1.7-4.9-3.6-7-5.8c-0.7-0.7-1.3-1.4-1.8-2.3c-0.6-1.2-0.4-2.3,0.5-3
			c0.8-0.7,1.8-0.7,2.9,0.1c0.4,0.2,0.7,0.5,1,0.8c4.5,4,9.4,7.3,14.6,10.3c3.4,2,6.8,4,10.2,6c1.4,0.8,2.8,1.5,4.3,2.1
			C179.4,364.2,179.9,364.5,180.3,364.7z M162.1,339.3c0.2,0.2,0.3,0.4,0.2,0.7c-0.7,0.4-1.2-0.1-1.8-0.4c-2.8-1.5-5.7-3.1-8.5-4.6
			c-0.5-0.3-1-0.5-1.5-0.8c0.8,1.1,2,1.8,3.1,2.6c4.3,3.3,8.9,6.2,13,9.8c1,0.8,1.9,1.7,2.8,2.6c0.2,0.2,0.5,0.4,0.3,0.8
			c-0.2,0.3-0.5,0.3-0.8,0.2c-0.9-0.2-1.7-0.5-2.6-0.9c-2.8-1.3-5.4-2.8-8-4.4c-0.3-0.2-0.6-0.4-1-0.5c-0.2,0.7,0.4,0.8,0.8,1
			c5.4,3.6,10.7,7.2,16.1,10.7c0.3,0.2,0.6,0.4,0.9,0.6c0.2,0.1,0.4,0.3,0.3,0.6c-0.1,0.4-0.4,0.4-0.7,0.3c-1.5-0.3-2.9-0.9-4.3-1.4
			c-3.6-1.5-7-3.4-10.4-5.4c-3.9-2.3-7.9-4.6-11.7-7.2c-1.2-0.8-2.2-1.7-3.1-2.8c-1.2-1.5-1.3-2.2-0.1-3.8c0.3-0.4,0.2-0.6,0-1
			c-0.2-0.2-0.4-0.5-0.6-0.7c-0.5-0.8-0.7-1.6-0.1-2.4c0.5-0.8,1.3-1.1,2.2-0.8c0.3,0.1,0.6,0.2,0.9,0.3c-0.5-0.4-0.9-0.8-1.3-1.2
			c-0.4-0.4-0.9-0.9-1.2-1.4c-0.4-0.6-0.4-1.3,0-1.9c0.4-0.5,1-0.7,1.6-0.4s1.3,0.4,1.8,0.8C153.6,331.4,157.9,335.2,162.1,339.3z
			 M169.4,311.2c-0.1,0.3-0.4,0.5-0.7,0.5c-0.3,0-0.6,0-0.9,0.1c-1.5-0.1-2.9-0.5-4.2-1c-4.4-1.6-8.3-4.3-12.2-6.9
			c-2.8-1.9-5.4-3.9-7.9-6.1c-1.4-1.2-2.7-2.6-3.8-4.2c-0.3-0.4-0.5-0.9-0.7-1.5c-0.2-0.6,0-1.2,0.4-1.7c0.5-0.4,1.1-0.5,1.7-0.2
			c0.4,0.2,0.7,0.4,1,0.7c5.3,4.4,10.9,8.3,16.6,12.3c3.3,2.3,6.6,4.6,9.8,6.9c0.2,0.1,0.4,0.3,0.6,0.4
			C169.3,310.7,169.5,310.9,169.4,311.2z M275.9,300.7c-0.2,0.5-0.5,1-0.8,1.4c-3.2,5-6.5,10-9.7,15c-1.8,2.8-3.4,5.6-4.7,8.7
			c-0.6,1.3-1.3,1.8-2.3,1.6c-1.1-0.2-1.6-1.1-1.6-2.5c0-1.4,0.5-2.6,1.1-3.8c4.1-7.7,9.4-14.6,16.1-20.3c0.4-0.3,0.8-0.8,1.3-0.9
			C275.9,300,276,300.3,275.9,300.7z M279.7,289.7c0.5,0.5,0,1-0.3,1.4c-0.6,0.9-1.3,1.7-2,2.6c-4.8,6.1-9.9,11.8-14.5,18.1
			c-1.4,2-2.8,4-4.1,6c-0.3,0.4-0.6,0.9-1,1.3c-0.8,0.9-1.7,1.1-2.4,0.7c-0.9-0.5-1-1.3-1-2.4c0.1-1.1,0.6-2.2,1.1-3.3
			c1.9-3.9,4.6-7.3,7.3-10.7c3.9-4.7,8.3-8.9,13.4-12.3c0.7-0.5,1.4-0.9,2.2-1.3C278.8,289.7,279.3,289.2,279.7,289.7z M277.9,283.8
			c0.3,0.3,0.1,0.6-0.1,0.8c-0.4,0.5-0.9,1-1.3,1.5c-4.5,4.5-8.7,9.2-12.8,14c-2.6,3-4.9,6.2-6.9,9.6c-0.3,0.5-0.6,1-1,1.5
			c-0.6,0.7-1.3,0.9-2.1,0.5c-0.8-0.3-1-1-1-1.9c0-0.8,0.3-1.5,0.7-2.3c0.9-2.2,2.2-4.2,3.7-6.1c4.3-5.4,9-10.4,14.6-14.5
			c1.5-1.1,3.1-1.9,4.7-2.9c0.3-0.2,0.7-0.3,1-0.4C277.4,283.6,277.7,283.6,277.9,283.8z M250.6,292.3c3.1-4.7,7.3-8,12.5-10.1
			c0.1,0,0.2-0.1,0.3-0.1c0.5-0.1,1.1-0.6,1.5,0.1c0.3,0.5-0.3,0.9-0.6,1.2c-3.8,3.9-7.9,7.6-12,11.2c-0.4,0.4-0.9,0.7-1.5,0.7
			c-0.7-0.1-1-0.5-1-1.2C250,293.3,250.3,292.8,250.6,292.3z M249,303.9c0.2-1,0.5-1.9,0.9-2.8c1-2.2,2.3-4.3,3.9-6.1
			c5.7-6.7,12.3-12.3,20.1-16.4c0.8-0.4,1.5-0.8,2.4-0.9c0.8-0.1,1.2,0.4,0.8,1.1c-0.5,0.8-1.1,1.5-1.7,2.2
			c-2.3,2.6-4.9,4.9-7.5,7.2c-5.5,4.8-10.8,9.6-15,15.6c-0.5,0.6-1,1.3-1.7,1.6C250,305.9,248.9,305.2,249,303.9z M260.2,143.5
			c0.1-0.5,0.5-0.6,0.8-0.3c0.3,0.2,0.6,0.5,0.8,0.7c1.4,1.8,2.4,3.8,3,6c0.1,0.2,0.1,0.5,0.1,0.7c0,0.6-0.1,1.1-0.7,1.4
			c-0.6,0.3-1.2,0.1-1.7-0.3c-0.3-0.3-0.5-0.5-0.7-0.9c-1.1-2-1.7-4.2-1.9-6.4C260.2,144.1,260.2,143.7,260.2,143.5z M247.2,132.2
			c0-0.3,0-0.6,0.4-0.8c0.3-0.1,0.6,0.1,0.7,0.4c0.2,0.4,0.4,0.7,0.6,1.1c2.4,5,5.1,9.8,7.9,14.5c0.5,0.8,0.9,1.6,1.2,2.4
			c0.4,1,0.1,1.8-0.7,2.2c-0.7,0.4-1.5,0.3-2.3-0.4c-0.3-0.3-0.6-0.6-0.8-1c-3.5-5.4-5.8-11.2-6.9-17.5
			C247.3,133,247.3,132.8,247.2,132.2C247.2,132.2,247.2,132.2,247.2,132.2C247.2,132.3,247.2,132.3,247.2,132.2
			C247.2,132.2,247.2,132.1,247.2,132.2C247.2,132.1,247.2,132.1,247.2,132.2C247.2,132.2,247.2,132.2,247.2,132.2z M238.3,123.3
			c0-0.4,0.1-0.8,0.5-0.8c0.3,0,0.5,0.3,0.6,0.6c0.2,0.6,0.5,1.1,0.7,1.7c1.8,4.6,3.9,9.2,5.9,13.8c1.1,2.6,2.5,5,3.9,7.4
			c0.5,0.9,1.1,1.8,1.3,2.8c0.2,1-0.1,2-0.9,2.4c-0.8,0.5-1.7,0.3-2.4-0.3c-0.8-0.6-1.4-1.5-1.9-2.4c-2.5-4.4-4.2-9.1-5.7-13.8
			c-1-3.1-1.7-6.3-2.1-9.6c0-0.4-0.1-0.7-0.1-0.9C238.3,123.7,238.3,123.5,238.3,123.3z M229.5,116.8c0-0.4,0-0.9,0.2-1.2
			c0.2-0.4,0.6-0.5,0.8-0.1c0.3,0.4,0.5,0.9,0.6,1.3c3.1,9.2,6.8,18.1,11.2,26.8c0.5,1,1,2.1,1.1,3.2c0,1.7-1.4,2.6-2.9,1.9
			c-0.7-0.3-1.2-0.8-1.6-1.5c-0.6-1-1.4-2-1.9-3.1c-3.1-6.8-5.9-13.8-7.1-21.2C229.7,120.8,229.4,118.8,229.5,116.8z M228,141.5
			c-2.2-5.6-3.8-11.4-5.5-17.2c-1.9-6.7-3.2-13.5-3.9-20.4c-0.1-1.3,0-2.7,0-4c0,0-0.1,0-0.1,0c0-1.3,0-2.6,0-3.8
			c0-0.3,0-0.6,0.4-0.7c0.4,0,0.5,0.3,0.6,0.6c0.2,0.9,0.5,1.8,0.6,2.7c1.9,9.4,5,18.4,8.1,27.5c1.6,4.6,3.6,9,5.4,13.6
			c0.3,0.8,0.7,1.6,0.8,2.4c0.2,1.4-0.4,2.6-1.7,3.1c-1.2,0.5-2.5,0.2-3.4-0.9C228.7,143.4,228.4,142.4,228,141.5z M276.9,154.2
			c-0.2,0.3-0.5,0.6-0.7,0.8c-2.9,3.1-6.6,5-10.6,6.1c-3.7,1-7.5,1.3-11.6,1.5c-8.3-0.5-15.8-3.3-21.9-9.3c-0.9-0.9-1.7-1.9-2.3-3.1
			c-0.3-0.5-0.5-1.1-0.5-1.7c0-1.3,0.9-1.9,2-1.5c0.3,0.1,0.7,0.3,1,0.5c9.6,5.2,19.9,7.5,30.8,6.5c3.7-0.3,7.5-0.6,11.2-1.3
			c0.7-0.1,1.3-0.1,2-0.1C277.3,152.7,277.5,153.2,276.9,154.2z"/>
		<path class="st0" d="M271.5,432.2c1.1-0.5,1.7-1.5,2.5-2.3C273.2,430.7,272.6,431.6,271.5,432.2z"/>
		<g>
			<path class="st1" d="M374,257.4c-0.9-8.5-3.6-16.5-7.5-24.1c-3.3-6.4-7.6-12.2-11.6-18.2c-5.1-7.6-11.7-14-19-19.6
				c-4.7-3.7-9.8-7-14.8-10.4c-3.3-2.3-6.6-4.7-9.4-7.6c-4-4.1-7.8-8.3-11.5-12.8c-3.8-4.6-7-9.5-9.4-14.9
				c-4.2-9.4-6.4-19.4-7.9-29.6c-1.1-7.2-2.1-14.3-3.7-21.4c-2.1-9.4-4.2-18.9-6.3-28.4c-1.6-7.2-3.7-14.1-7.1-20.7
				c-1.9-3.7-4.3-7.1-7.3-10c-4.2-4-9.3-5.9-15-6.4c-4.9-0.4-9.5,0.6-13.4,3.7c-3.5,2.7-6.5,5.8-9,9.5c-2.5,3.8-4.3,8-5.9,12.3
				c-3.5,9.4-6.3,19-7.1,29c-0.6,7-0.5,14,0.6,20.9c1.3,8.1,3.4,16.1,6,23.9c3.4,10.2,6.9,20.4,11.8,30.1c0.9,1.8,1.6,3.7,2.2,5.6
				c2.1,7.4,4.1,14.9,6.2,22.3c0.9,3.3,1.9,6.7,2.9,10c0.3,1.1,0.3,1.1-0.9,1.5c-1,0.3-2,0.6-2.9,1c-3,1.3-5.9,2.6-8.9,3.9
				c-4.8,2-9.4,4.2-14.4,5.7c-6.3,1.9-12.7,3.4-19.2,4.6c-6.7,1.2-13.5,2.2-20.2,2.9c-6.9,0.7-13.6,2.2-19.9,4.9
				c-5.5,2.3-10.3,5.4-14.2,10c-2.4,2.7-4.2,5.8-6.1,8.9c-4.2,7-6.1,14.5-6.2,22.6c0,5,1,9.9,2.1,14.8c1,4.5,2.7,8.7,5,12.7
				c0.7,1.2,1.1,2.4,1.2,3.8c0.2,3.8,0.1,7.7-0.5,11.5c-0.7,4.2-1.4,8.4-1.9,12.6c-0.6,5.7-0.3,11.3,1.6,16.8
				c2.6,7.4,6.3,14.1,11.5,20c0.7,0.8,1.1,1.6,1.4,2.5c0.9,2.8,0.8,5.7,0.6,8.5c-0.4,4.3-0.5,8.5,0.5,12.7c0.9,4.2,1.9,8.3,3.1,12.4
				c1.2,4.3,3.5,8,6.7,11.2c0.6,0.6,1.1,1.3,1.4,2.1c0.6,1.7,1,3.4,1.3,5.1c0.5,2.9,0.3,5.7,0.3,8.6c0,4.9,1.2,9.5,3.4,13.9
				c1.7,3.5,4.2,6.4,6.6,9.4c3.3,4.3,7.6,6.9,12.9,7.8c2.4,0.4,4.8,0.7,7.2,1.4c2.3,0.7,4.6,1.1,7,1.2c1.8,0.1,3.7,0.1,5.5,0.4
				c4.4,0.8,8.7,1.7,13.1,2.6c5,1,9.8,2.4,14.8,3.4c6.3,1.4,12.6,2.5,19,3.8c2.2,0.4,4.4,0.6,6.7,0.3c7.5-0.8,14-3.6,19.5-8.6
				c0.9-0.8,1.8-1.5,2.5-2.4c2.1-2.6,4.3-5.1,6-8c0.5-0.8,1.1-1.2,2.1-1.2c2.4,0,4.7-0.1,7.1-0.4c6-0.8,11.8-2.4,17-5.7
				c2.1-1.4,4.2-2.9,6.3-4.4c10.8-7.8,19.7-17.4,26.7-28.7c3.7-5.9,7-12.1,10-18.5c4.9-10.2,7.5-21,8.6-32.1c0.5-4.5,0.6-9,0.8-13.5
				c0.1-2.6,0.1-5.3,1.2-7.7c3.8-7.8,6.4-15.9,8.1-24.4c2.2-11.4,3.9-22.8,3.8-35.4C375.1,270.2,374.7,263.8,374,257.4z
				 M364.1,311.2c-1.6,7.8-4.1,15.4-7.5,22.7c-3,6.3-6.5,12.4-10.3,18.3c-3.3,5-6,10.3-8.8,15.6c-0.1,0.2-0.2,0.4-0.3,0.7
				c-0.1,0.4-0.2,0.7,0.2,1c0.3,0.2,0.6,0.1,0.9,0c1-0.4,1.8-1.1,2.6-1.7c2.9-2.4,5.4-5.2,7.7-8.3c1.5-2,2.8-4,4.2-6
				c0.3-0.5,0.6-1,1.1-1.4c0.5,0.4,0.3,0.9,0.2,1.2c-1.3,7.6-2.7,15.1-5.2,22.4c-2.1,6.2-5.1,12-8.2,17.7
				c-3.7,6.8-7.6,13.5-12.5,19.5c-2.3,2.9-4.6,5.9-7.3,8.4c-3.2,3-6.7,5.8-10.4,8.4c-3.8,2.7-7.7,5.3-12.2,6.9
				c-2.8,1-5.7,1.6-8.6,2.1c-0.4-0.5,0-0.8,0.2-1.1c1.2-1.6,2.4-3.2,3.8-4.7c3.4-3.8,4.9-8.2,4.4-13.3c-0.2-2.1-0.4-4.2-0.8-6.3
				c-0.5-3.2-2.2-5.6-5.2-7c-1.5-0.7-1.5-0.8-0.6-2.3c2.9-4.8,6.3-9.1,10.1-13.2c2.5-2.8,5-5.7,6.9-9c2.6-4.6,3.2-9.3,1.1-14.2
				c-0.5-1.2-1-2.5-1.6-3.7c-0.4-0.8-0.2-1,0.6-1c1,0.1,1.9,0.2,2.9,0.3c3,0.5,6.1,0.3,9.1,0.2c0.6,0,1.2-0.1,1.8-0.4
				c0.6-0.3,0.7-0.9,0.1-1.3c-0.4-0.3-0.9-0.5-1.4-0.8c-4.7-2-9.5-3.9-14.2-5.9c-0.9-0.4-1.7-0.8-2.5-1.9c2,0.7,3.7,1.4,5.4,2
				c2.6,0.9,5.4,1.6,8.2,1.9c1.4,0.2,2.8,0,4.2-0.4c0.4-0.1,0.9-0.2,0.9-0.8c0-0.5-0.5-0.7-0.9-0.8c-6.2-2.3-11.9-5.8-18-8.5
				c-1-0.5-1.9-1-2.9-1.5c-0.4-0.2-1-0.4-0.6-1.1c0.3-0.6,0.7-1,1.4-0.7c0.8,0.3,1.6,0.6,2.4,0.9c3,1.2,6,2,9.1,2.6
				c1,0.2,1.9,0.3,2.9,0.1c0.7-0.1,0.9-0.6,0.4-1.1c-0.3-0.3-0.7-0.5-1-0.8c-3.4-2.1-6.8-4.3-10.5-6c-1.3-0.6-1.3-0.7-0.6-1.9
				c2.6-4.5,3-9.3,1.6-14.3c-1-3.5-2.1-7-4.2-10.1c-2.8-4-6.4-6.8-11-8.3c-0.5-0.2-1.1-0.2-1.6-0.7c0.3-0.8,1-1.5,1.6-2.1
				c2.2-2.2,4.4-4.4,6.5-6.6c2-2.1,3.7-4.4,5.1-6.9c3-5.4,3.4-11,2.4-17c-0.7-3.9-2.5-6.9-5.6-9.3c-4-3.1-8.6-4.8-13.6-5.4
				c-7.1-0.9-13.8,0.2-20.4,2.8c-0.3,0.1-0.6,0.2-0.9,0.3c-0.6,0.2-1,0-1.1-0.5c-0.4-1.5-0.9-2.9-0.3-4.5c1-2.8,1.9-5.5,2.7-8.3
				c0.2-0.6,0.8-1.6,0-2c-0.8-0.4-1.2,0.7-1.6,1.2c-3.4,4.9-6.8,9.8-10,14.9c-1.5,2.5-3.3,4.8-4.9,7.3c-0.8,1.2-1.8,1.7-3.2,1.7
				c-4.3,0-8-1.5-11.4-3.9c-1.2-0.8-1.9-2-2.4-3.4c-1.7-3.9-2.9-7.9-4.4-11.8c-1.2-3.2-2.4-6.5-4-9.6c-0.6-1.1-1.2-2.1-2-3
				c-0.2-0.2-0.5-0.4-0.8-0.2c-0.2,0.1-0.2,0.4-0.2,0.7c0,0.4,0.1,0.7,0.2,1.1c1.6,6.8,2.1,13.8,2.3,20.8c0,0.2,0,0.5,0,0.7
				c-0.1,1-0.3,1.1-1.1,0.7c-2.1-1.1-4.2-2-6.4-2.7c-4.2-1.3-8.5-1.9-12.9-2.6c-4.5-0.6-8.9-1.2-13.4-1.2c-5.4,0-10.8,0.2-16.3,0.3
				c-0.6,0-1.4,0-1.5,0.8c-0.1,0.8,0.6,1.1,1.3,1.3c0.9,0.2,1.8,0.4,2.7,0.5c4.6,0.1,9,1.3,13.3,3c10.6,4.2,21,9.1,31.1,14.6
				c5.7,3.1,10.7,7.2,15.8,11.2c1,0.8,2.1,1.6,3.2,2.4c0.9,0.6,1.9,1,3.1,1.1c1.8,0.1,2.7-0.9,2.4-2.7c-0.1-0.6-0.4-1.3-0.7-1.9
				c-0.4-0.7-0.3-1.2,0.3-1.8c4.8-5.2,9.6-10.4,15.6-14.2c4.9-3.1,10-5.5,15.7-6.6c4.2-0.8,8.5-0.8,12.7-0.1c3.7,0.6,6.8,2.4,9.4,5
				c2.4,2.5,3.1,5.6,2.7,9c-0.6,4.4-2.9,8-5.5,11.4c-1.6,2.2-3.6,4-5.4,5.9c-6,6.3-12.1,12.5-17.2,19.6c-1.3,1.8-2.6,3.7-3.6,5.7
				c-1,1.8-2.1,3.6-3.5,5.1c-1.2,1.3-2.1,2.8-3.1,4.3c-2.7,4-5.9,7.2-10.5,9.1c-1.9,0.8-3.9,1.3-6,1.3c-6.6,0.2-13-0.9-19.3-2.7
				c-10.7-3.1-21.1-6.8-31.3-11.1c-5.1-2.2-10.4-3.4-15.7-4.8c-4.2-1-8.4-2.2-12.7-2.7c-2.2-0.3-4.5-0.3-6.7,0.1
				c-0.3,0.1-0.6,0.1-0.7,0.4c-0.2,0.4,0.1,0.7,0.4,0.9c0.5,0.3,0.9,0.6,1.4,0.8c2.2,1.1,4.4,2.1,6.7,2.8c12.8,3.8,25,9.2,37.3,14.4
				c8.7,3.7,17.7,6.5,27.1,8.1c6.3,1,10.2,1.4,19-0.8c0.3,0.2,0.2,0.4,0.2,0.6c-0.2,1.7,0.6,2.4,2.2,1.9c0.9-0.3,1.6-0.8,2.3-1.5
				c1.6-1.6,3.2-3.2,4.7-4.9c4.3-4.7,8.7-9.2,13.4-13.4c2.5-2.2,4.8-4.5,7.2-6.7c0.4-0.4,1.2-0.9,0.8-1.5c-0.4-0.6-1.1-0.1-1.7,0.1
				c-1.5,0.6-3,1.4-4.4,2.2c-0.4,0.2-0.8,0.5-1.4,0.6c0-0.7,0.5-1.2,0.8-1.6c2.8-3.7,5.7-7.4,8.7-11c1.3-1.5,1.5-1.5,3.4-0.6
				c5.6,2.7,9.4,6.8,11,12.9c0.5,1.9,1.1,3.9,1.6,5.8c0.3,1.3,0.2,2.5-0.3,3.8c-0.5,1.5-1.3,2.9-2.1,4.2c-5,7.9-9.8,15.8-14.2,24.1
				c-2,3.9-4.3,7.6-6.1,11.6c-0.7,1.6-1.8,3.1-3,4.3c-3.3,3.3-6.8,6.3-10.8,8.7c-5.8,3.4-11.8,4.5-18.4,3.3
				c-7.8-1.4-15.4-3.8-23.1-5.5c-8.8-2-17.4-4.6-26.2-6.5c-7.1-1.6-14.2-2.8-21.5-2.8c-1.5,0-2.9-0.2-4.4-0.3c-0.5,0-1,0-1.5,0
				c-0.4,0-0.9,0.1-1,0.6c-0.1,0.5,0.3,0.8,0.7,1c0.3,0.2,0.7,0.3,1,0.5c1,0.4,2.1,0.7,3.2,0.9c7.9,1.5,15.6,3.9,23.2,6.5
				c7.7,2.6,15.2,5.7,23,7.8c6,1.7,12,3.4,18,4.6c3.5,0.7,7.1,1,10.7,1.3c3.5,0.3,6.9-0.6,10.2-1.6c1.6-0.5,3.1-1,4.7-1.6
				c0.4,0.5-0.1,0.8-0.3,1.1c-1,1.3-1.8,2.6-2.5,4c-0.2,0.4-0.4,0.9-0.6,1.3c-0.2,0.7-0.2,1.4,0.4,1.8c0.6,0.5,1.3,0.3,1.9,0
				c0.9-0.5,1.6-1.1,2.3-1.8c2.6-2.5,4.9-5.2,7.3-7.9c4.2-4.7,8.4-9.3,12.2-14.3c0.6-0.8,1.2-1.6,1.7-2.4c0.2-0.3,0.6-0.7,0.2-1.2
				c-0.3-0.5-0.8-0.2-1.2,0c-0.2,0.1-0.4,0.2-0.8,0c0.6-2.6,1.5-5.2,3-7.5c0.9-1.5,2-2.9,3-4.4c0.6-0.9,1.4-1.3,2.5-1.1
				c2.8,0.4,5.3,1.3,7.3,3.4c1.8,1.8,3.1,3.8,4,6.2c1.1,3.2,0.7,6.2-1,9.1c-1.3,2.1-2.8,4-4.3,5.9c-3.2,4-6.7,7.8-9.5,12.1
				c-2.5,3.8-4.9,7.7-6.6,12c-1.2,3-2.8,5.8-4.6,8.5c-0.8,1.2-1.7,2.4-2.8,3.3c-1.5,1.2-2.7,2.8-4.1,4.1c-2.8,2.7-6,4.6-9.8,5.4
				c-2.4,0.5-4.7,0.1-7.1-0.3c-5.2-0.9-10.3-2.6-15.3-4.1c-4.8-1.4-9.6-2.7-14.5-3.7c-7.8-1.6-15.5-3.2-23.3-4.3
				c-4.9-0.7-9.8-0.9-14.8-0.7c-0.7,0-1.7-0.1-1.9,0.7c-0.2,1.1,1,1.1,1.7,1.2c5.5,1.4,11.1,2.6,16.6,4.3
				c12.2,3.7,24.5,6.9,36.7,10.5c6,1.8,12.1,3,18.3,3.2c0.8,0,1.6,0,2.4,0c0.3,0.5-0.2,0.8-0.4,1.1c-0.6,0.8-1.3,1.6-1.7,2.6
				c-0.3,0.6-0.3,1.2,0.3,1.7c0.5,0.4,1.1,0.2,1.5-0.1c0.4-0.3,0.9-0.7,1.3-1c1-1,2.2-2,3.1-3.1c2.3-2.8,5.4-4.5,8.5-6.1
				c0,0,0,0,0,0c-0.1,0.2-0.3,0.4-0.4,0.6c-2,2-4,3.9-5.7,6.1c-1.6,2.1-3.2,4.2-4.1,6.7c-0.3,0.7-0.4,1.4,0.2,2
				c0.7,0.6,1.5,0.4,2.2,0.1c1-0.5,1.8-1.2,2.7-1.9c5.4-4.7,10.3-10,15.1-15.3c1.8-1.9,3.3-4.1,4.6-6.3c0.3-0.4,0.7-1,0.2-1.5
				c-0.4-0.4-0.9-0.1-1.4,0.1c-0.3,0.1-0.6,0.3-0.8,0.4c-2.6,1.3-5,2.9-7.3,4.8c-0.5,0.4-0.9,0.9-1.5,1c2.4-3,5.2-5.7,7.4-8.8
				c1.9-2.6,3.6-5.3,4.9-8.3c0.3-0.7,0.5-1.7,1.4-1.7c0.9,0,1.4,0.7,1.8,1.4c1.8,3.4,2.7,7,2,10.9c-0.4,1.9-1.5,3.5-2.8,4.9
				c-4.7,4.9-8,10.7-11.6,16.4c-2.3,3.7-4.9,7.3-8.3,10.1c-6,4.8-12.8,6.9-20.6,5.9c-6.3-0.8-12.6-1.6-18.7-3.1
				c-5.1-1.3-10.2-2.7-15.5-3.7c-7.7-1.4-15.5-2.6-23.3-3.7c-3.9-0.5-7.9-1.7-11.6-3.3c-1.4-0.6-2.6-1.5-3.7-2.6
				c-5.3-5.1-8.9-11.2-9.9-18.7c-0.4-2.9-0.6-5.8-0.9-8.7c-0.1-1-0.5-2-0.4-3.2c1.4,0.1,2.6,0.7,4,0.6c0.7-0.1,1.6,0.2,2-0.6
				c0.4-0.8-0.4-1.3-0.8-1.9c-1.6-1.8-3.1-3.6-4.9-5.1c-6-5.2-9.6-11.8-10.8-19.7c-0.9-5.6-1.4-11.2-2.1-16.8
				c-0.2-1.3-0.4-2.6-0.6-3.9c0.4-0.5,0.8-0.2,1.2-0.1c1.3,0.5,2.7,0.6,4.1,0.7c0.7,0.1,1.3,0,2-0.2c0.5-0.2,0.7-0.6,0.5-1.2
				c-0.2-0.5-0.6-0.9-1-1.3c-1.5-1.6-3.2-3-4.9-4.4c-2.2-1.8-4.1-3.8-5.7-6.2c-2.3-3.4-4.4-6.9-6.5-10.4c-1.6-2.7-2.1-5.7-2.6-8.7
				c-0.6-4.1-0.4-8.2-0.2-12.4c0.2-4.4,1-8.7,0.9-13.1c0-1.7-0.2-3.4-0.3-5.3c1.2,0.6,2.2,1.1,3.3,1.5c0.7,0.3,1.5,0.7,2,0.1
				c0.6-0.7,0-1.4-0.3-2c-0.8-1.5-1.7-3.1-2.8-4.5c-1.8-2.5-3.2-5.3-4.4-8.2c-2.6-6.7-4.3-13.7-5.1-20.9c-0.9-8,0.1-15.7,4.8-22.6
				c3.4-5,7.7-9.1,13.2-11.9c6.4-3.2,13.2-5.2,20.4-6.1c12.6-1.6,25.1-3.2,37.4-6.4c6-1.6,11.8-3.4,17.4-6c4.5-2.1,9.2-3.6,13.8-5.3
				c1.4-0.5,1.5-0.5,1.9,1c1.2,3.8,2.3,7.7,3.4,11.6c1,3.3,2.4,6.5,3.9,9.7c0.3,0.7,0.7,1.3,1.1,1.9c0.6,0.8,1.3,0.6,1.6-0.3
				c0.3-1,0.4-2,0.5-3.1c0.2-4,0-8-0.9-12c-0.6-2.9-1.2-5.8-1.6-8.9c0.6,0.8,1.3,1.5,1.9,2.3c1.2,1.5,2.6,2.9,4,4.2
				c0.5,0.4,1.1,0.8,1.6,1.2c0.3,0.2,0.6,0.3,0.8,0.1c0.4-0.3,0.2-0.6,0-1c-0.1-0.2-0.2-0.4-0.4-0.6c-3.3-4.7-5.7-9.9-8.5-14.9
				c-1.2-2.1-2.3-4.3-3.5-6.4c-1-1.7-1.8-3.5-2.4-5.3c-3.4-10-6.8-20.1-10.8-29.9c-1-2.5-2.1-4.9-3.2-7.4c-1.2-2.7-2-5.6-2.8-8.5
				c-3.1-10.3-5.9-20.6-8-31.1c-1.1-5.6-1.6-11.2-1.8-16.9c-0.5-14.5,2.6-28.3,7.8-41.7c1.6-4.1,3.9-7.8,7.6-10.5
				c3.2-2.3,6.6-3.3,10.5-2.7c1,0.2,2.1,0.2,3.1,0.4c3.8,0.7,6.7,2.7,9.1,5.6c2.9,3.5,4.9,7.4,6.8,11.4c4.7,9.9,8.3,20.2,10.3,31
				c1.8,9.5,3.4,18.9,4.6,28.5c1.5,12.4,4.6,24.4,9.6,35.9c1.4,3.1,2.9,6.1,4.9,8.7c5.1,6.6,10.1,13.1,15.7,19.2
				c3.7,4,7.8,7.5,12.2,10.7c6.4,4.6,12.7,9.3,18.8,14.2c5.3,4.3,10.1,9.2,14.2,14.7c2.9,3.9,5.2,8.2,7.4,12.6
				c3.2,6.5,5.6,13.2,6.8,20.4c0.6,3.4,0.9,6.8,1.2,10.2c0.4,4.8,0.8,9.6,1,14.4C368,290.1,366.3,300.6,364.1,311.2z M274,429.8
				c-0.8,0.9-1.4,1.8-2.5,2.3C272.6,431.6,273.2,430.7,274,429.8z"/>
			<path class="st1" d="M276.2,152.6c-0.7,0-1.3,0-2,0.1c-3.7,0.7-7.5,0.9-11.2,1.3c-10.9,0.9-21.2-1.3-30.8-6.5
				c-0.3-0.2-0.6-0.4-1-0.5c-1.2-0.4-2.1,0.2-2,1.5c0,0.6,0.3,1.2,0.5,1.7c0.6,1.2,1.4,2.1,2.3,3.1c6.1,6.1,13.7,8.9,21.9,9.3
				c4.1-0.2,7.9-0.5,11.6-1.5c4.1-1.1,7.7-3,10.6-6.1c0.3-0.3,0.5-0.5,0.7-0.8C277.5,153.2,277.3,152.7,276.2,152.6z"/>
			<path class="st1" d="M232.8,145.1c1.2-0.6,1.8-1.7,1.7-3.1c-0.1-0.9-0.5-1.6-0.8-2.4c-1.8-4.5-3.8-8.9-5.4-13.6
				c-3.1-9-6.3-18.1-8.1-27.5c-0.2-0.9-0.4-1.8-0.6-2.7c-0.1-0.3-0.2-0.6-0.6-0.6c-0.4,0-0.4,0.4-0.4,0.7c0,1.3,0,2.6,0,3.8
				c0,0,0.1,0,0.1,0c0,1.3-0.1,2.7,0,4c0.7,6.9,1.9,13.7,3.9,20.4c1.7,5.8,3.3,11.6,5.5,17.2c0.4,1,0.7,1.9,1.4,2.8
				C230.3,145.3,231.6,145.7,232.8,145.1z"/>
			<path class="st1" d="M263.5,409.6c0.7-0.4,1.2-1,1.7-1.6c5.1-6.1,10-12.3,15.3-18.1c3.1-3.5,6.1-7.1,8.9-10.9
				c0.5-0.7,1-1.5,1.5-2.3c0.2-0.3,0.2-0.6,0-0.8c-0.3-0.2-0.6-0.2-0.8,0c-0.4,0.2-0.9,0.4-1.3,0.7c-1.8,1.1-3.5,2.4-5.2,3.7
				c-5.6,4.6-10.4,9.9-15.3,15.1c-2.6,2.7-4.8,5.8-6.7,9.1c-0.6,1.1-1.1,2.2-1.1,3.3C260.5,409.6,262,410.4,263.5,409.6z"/>
			<path class="st1" d="M268.5,346.8c-2.3,2.7-4.5,5.6-6.2,8.8c-1.2,2.3-2.1,4.6-2.4,7c0,0.9-0.1,1.7,0.7,2.1
				c0.9,0.4,1.5-0.1,2.1-0.7c0.4-0.5,0.8-0.9,1.1-1.4c2-2.6,3.9-5.3,6-7.8c5.2-6.5,10.5-13,15.7-19.4c0.6-0.7,1.1-1.4,1.6-2.2
				c0.2-0.3,0.4-0.7,0.2-1c-0.3-0.5-0.8-0.2-1.1-0.1c-0.7,0.4-1.4,0.7-2.1,1.1C278.1,336.9,273,341.5,268.5,346.8z"/>
			<path class="st1" d="M161.1,384c-1-0.2-2,0-2.6,0.9c-0.6,0.8-0.5,1.8,0,2.6c0.5,0.7,0.7,1.3,0.2,2.2c-0.3,0.6,0.1,1.2,0.4,1.7
				c0.5,0.7,1.2,1.2,1.9,1.7c5.5,4.1,11.3,7.6,17.5,10.5c1.7,0.8,3.5,1.4,5.4,1.7c0.5,0.1,1,0.1,1.4,0c0.6-0.2,0.8-0.6,0.3-1.1
				c-0.3-0.2-0.6-0.4-0.9-0.6c-3.8-2.4-7.5-4.7-11.3-7.1c-0.7-0.5-1.5-1-2.2-1.4c0-0.1,0.1-0.2,0.1-0.3c1.1,0.3,2.3,0.7,3.4,1
				c0.6,0.1,1.5,0.8,2-0.2c0.3-0.7-0.5-1.2-1-1.6c-3.8-3.5-7.9-6.6-12.5-9.2C162.6,384.5,161.9,384.1,161.1,384z"/>
			<path class="st1" d="M164.4,355.9c-5.1-3-10.1-6.3-14.6-10.3c-0.3-0.3-0.6-0.6-1-0.8c-1.1-0.8-2-0.8-2.9-0.1
				c-0.9,0.7-1,1.8-0.5,3c0.4,0.9,1.1,1.6,1.8,2.3c2.1,2.2,4.5,4.1,7,5.8c5.3,3.6,10.7,6.9,16.9,8.8c2.3,0.7,4.6,1.3,7.3,1.3
				c0.3,0,1-0.1,1.6-0.1c0.3,0,0.5-0.2,0.5-0.5c0-0.3-0.1-0.5-0.3-0.6c-0.5-0.3-1-0.5-1.5-0.7c-1.5-0.6-2.9-1.3-4.3-2.1
				C171.2,359.9,167.8,357.9,164.4,355.9z"/>
			<path class="st1" d="M257.5,355.8c1.1,0.3,1.7-0.5,2.2-1.3c0.4-0.6,0.7-1.1,1.1-1.7c3.6-5.5,8.1-10.3,12.5-15.2
				c2.8-3.2,5.6-6.4,8.1-9.8c0.6-0.8,1.1-1.6,1.6-2.4c0.2-0.3,0.3-0.7,0.1-1c-0.3-0.4-0.7-0.2-1,0c-0.5,0.3-1.1,0.6-1.6,0.9
				c-1.3,0.9-2.6,1.8-3.9,2.7c-4.9,3.6-8.9,8.1-12.8,12.7c-2.2,2.6-4.3,5.3-6,8.3c-0.8,1.4-1.4,2.8-1.6,4.3
				C256.1,354.6,256.6,355.6,257.5,355.8z"/>
			<path class="st1" d="M262.8,303.5c-2.8,3.3-5.4,6.7-7.3,10.7c-0.5,1.1-1,2.2-1.1,3.3c-0.1,1.1,0.1,1.9,1,2.4
				c0.8,0.4,1.6,0.2,2.4-0.7c0.4-0.4,0.7-0.9,1-1.3c1.4-2,2.7-4,4.1-6c4.5-6.3,9.7-12,14.5-18.1c0.7-0.9,1.4-1.7,2-2.6
				c0.3-0.4,0.9-0.9,0.3-1.4c-0.4-0.4-0.9,0-1.3,0.2c-0.7,0.4-1.5,0.9-2.2,1.3C271.1,294.6,266.7,298.8,262.8,303.5z"/>
			<path class="st1" d="M251.2,305.3c0.7-0.3,1.3-1,1.7-1.6c4.2-6,9.5-10.9,15-15.6c2.6-2.3,5.2-4.6,7.5-7.2
				c0.6-0.7,1.2-1.4,1.7-2.2c0.4-0.7,0.1-1.2-0.8-1.1c-0.9,0.1-1.6,0.5-2.4,0.9c-7.8,4.1-14.4,9.7-20.1,16.4
				c-1.6,1.9-2.9,3.9-3.9,6.1c-0.4,0.9-0.7,1.8-0.9,2.8C248.9,305.2,250,305.9,251.2,305.3z"/>
			<path class="st1" d="M169.1,310.6c-0.2-0.2-0.4-0.3-0.6-0.4c-3.3-2.3-6.5-4.6-9.8-6.9c-5.6-3.9-11.3-7.9-16.6-12.3
				c-0.3-0.3-0.7-0.5-1-0.7c-0.6-0.3-1.2-0.2-1.7,0.2c-0.5,0.4-0.7,1-0.4,1.7c0.2,0.5,0.4,1,0.7,1.5c1.1,1.5,2.3,2.9,3.8,4.2
				c2.5,2.2,5.2,4.3,7.9,6.1c3.9,2.6,7.7,5.3,12.2,6.9c1.4,0.5,2.8,0.9,4.2,1c0.3,0,0.6,0,0.9-0.1c0.3,0,0.6-0.2,0.7-0.5
				C169.5,310.9,169.3,310.7,169.1,310.6z"/>
			<path class="st1" d="M282.9,391.7c-0.6,0.4-1.2,0.8-1.8,1.2c-5.2,3.8-9.5,8.5-13.4,13.6c-1.8,2.4-3.6,4.9-4.9,7.7
				c-0.6,1.3-1.1,2.6-1.2,3.8c0,0.7,0.1,1.3,0.6,1.6c0.6,0.4,1.2,0.2,1.7-0.1c0.7-0.5,1.3-1.1,1.8-1.8c2.3-2.8,4.2-5.8,6.4-8.7
				c3.4-4.6,6.9-9.1,10.3-13.7c0.6-0.8,1.2-1.7,1.8-2.5c0.3-0.4,0.8-1,0.3-1.4C283.9,390.9,283.4,391.4,282.9,391.7z"/>
			<path class="st1" d="M175,434.5c-0.9-0.2-1.8,0-2.4,0.8c-0.5,0.7-0.4,1.6,0.3,2.5c0.3,0.4,0.7,0.8,1.2,1.1c1.2,1,2.5,1.8,3.8,2.5
				c5.1,2.6,10.3,4.6,15.7,6.3c1.7,0.5,3.4,0.8,5.2,0.8c1,0,2.1,0.1,3-0.4c0.7-0.4,0.7-0.8,0.2-1.3c-0.2-0.2-0.4-0.3-0.6-0.4
				c-2.2-1.1-4.3-2.3-6.5-3.2c-6.1-2.6-12.2-5.2-18.2-8.1C176.2,434.8,175.6,434.6,175,434.5z"/>
			<path class="st1" d="M281.7,347.8c0.3-0.4,0.6-0.8,0.7-1.3c0.2-0.6-0.2-1-0.8-0.8c-0.8,0.2-1.4,0.7-2.1,1.1
				c-4,2.7-7.6,5.9-10.6,9.7c-2.4,3.1-4.7,6.2-6.2,9.9c-0.4,0.9-0.6,1.8-0.7,2.8c0,1.2,0.6,2.1,1.4,2.4c0.9,0.3,1.7,0,2.5-1
				c0.4-0.5,0.8-1.1,1.2-1.6C271.8,361.8,276.6,354.6,281.7,347.8z"/>
			<path class="st1" d="M237.1,144c0.5,1.1,1.2,2.1,1.9,3.1c0.4,0.6,0.9,1.1,1.6,1.5c1.5,0.7,2.9-0.2,2.9-1.9
				c-0.1-1.1-0.6-2.1-1.1-3.2c-4.4-8.6-8.1-17.6-11.2-26.8c-0.2-0.5-0.3-0.9-0.6-1.3c-0.3-0.4-0.7-0.3-0.8,0.1
				c-0.1,0.4-0.2,0.8-0.2,1.2c-0.1,2,0.2,4,0.5,6C231.2,130.2,234,137.2,237.1,144z"/>
			<path class="st1" d="M276.2,284.1c-1.6,0.9-3.2,1.8-4.7,2.9c-5.7,4-10.3,9-14.6,14.5c-1.5,1.9-2.8,3.9-3.7,6.1
				c-0.3,0.8-0.7,1.6-0.7,2.3c0,0.9,0.3,1.6,1,1.9c0.8,0.4,1.6,0.1,2.1-0.5c0.4-0.5,0.7-1,1-1.5c2-3.4,4.4-6.6,6.9-9.6
				c4.1-4.8,8.3-9.5,12.8-14c0.5-0.5,0.9-1,1.3-1.5c0.2-0.2,0.3-0.5,0.1-0.8c-0.2-0.2-0.4-0.2-0.7-0.1
				C276.8,283.8,276.5,284,276.2,284.1z"/>
			<path class="st1" d="M165.5,397.1c-0.8-0.6-1.6-1.1-2.7-1.1c-1.8,0-2.9,1.5-2.3,3.2c0.6,1.8,2,2.8,3.5,3.8
				c7.1,4.6,14.8,7.8,22.9,10.2c0.5,0.1,0.9,0.2,1.4,0.3c0.3,0.1,0.5,0,0.6-0.3c0.1-0.3,0-0.5-0.1-0.7c-0.4-0.3-0.9-0.7-1.3-0.9
				c-4.9-3-9.7-6-14.4-9.3C170.6,400.7,168.1,398.9,165.5,397.1z"/>
			<path class="st1" d="M171.4,423.6c-0.4,0.8-0.2,1.7,0.6,2.7c0.7,0.8,1.6,1.2,2.7,1.8c-1.3,0.2-2.2,0.5-2.3,1.7
				c-0.1,1.1,0.6,1.8,1.4,2.4c0.5,0.3,0.9,0.6,1.4,0.8c2.8,1.2,5.6,2.4,8.5,3.4c2,0.7,4,1.4,6.2,1.6c0.6,0,1.5,0.5,1.8-0.3
				c0.2-0.7-0.7-1-1.3-1.3c-3.5-2.1-7.1-4.2-10.9-6c-0.6-0.3-1.2-0.5-1.9-1.2c1.8,0.2,3.4,0.5,5,0.6c0.4,0.1,0.9,0,1.1-0.4
				c0.3-0.5-0.1-0.8-0.4-1.1c-2.7-2.5-5.7-4.6-9.3-5.6C172.9,422.3,171.9,422.7,171.4,423.6z"/>
			<path class="st1" d="M275.4,299.9c-0.6,0.1-0.9,0.5-1.3,0.9c-6.7,5.7-12,12.6-16.1,20.3c-0.6,1.2-1.1,2.4-1.1,3.8
				c0,1.4,0.6,2.3,1.6,2.5c1,0.2,1.7-0.3,2.3-1.6c1.3-3,2.9-5.9,4.7-8.7c3.2-5,6.4-10,9.7-15c0.3-0.5,0.6-0.9,0.8-1.4
				C276,300.3,275.9,300,275.4,299.9z"/>
			<path class="st1" d="M141.4,288.3c4,3.2,8.1,6.2,12.3,9.1c2.4,1.6,4.7,3.2,7.3,4.5c1,0.5,2.1,0.9,3.3,1.1c0.5,0,1.3,0.2,1.5-0.4
				c0.3-0.7-0.6-0.8-0.9-1.1c-6.8-5.1-13.8-10.1-20.3-15.5c-1.5-1.2-3.1-2.4-4.7-3.5c-0.6-0.4-1.3-0.8-2-0.1c-0.6,0.6-0.4,1.3,0,2
				c0.3,0.6,0.7,1.1,1.2,1.6C139.8,286.8,140.6,287.6,141.4,288.3z"/>
			<path class="st1" d="M238.4,125c0.4,3.3,1.1,6.5,2.1,9.6c1.5,4.8,3.2,9.5,5.7,13.8c0.5,0.9,1,1.8,1.9,2.4
				c0.7,0.6,1.5,0.7,2.4,0.3c0.8-0.4,1.1-1.4,0.9-2.4c-0.2-1-0.8-1.9-1.3-2.8c-1.5-2.4-2.8-4.9-3.9-7.4c-2-4.6-4.1-9.1-5.9-13.8
				c-0.2-0.6-0.5-1.1-0.7-1.7c-0.1-0.3-0.3-0.6-0.6-0.6c-0.5,0-0.5,0.4-0.5,0.8c0,0.2,0,0.4,0,0.7
				C238.3,124.3,238.4,124.6,238.4,125z"/>
			<path class="st1" d="M282.5,352.4c-0.6-0.5-1.2,0.5-1.7,1c-2.9,2.7-5.3,5.9-7.6,9c-2.2,3-4.2,6.2-5.9,9.6c-0.6,1.2-1,2.3-1.2,3.6
				c0,0.8,0.2,1.4,0.9,1.7c0.7,0.3,1.3-0.1,1.8-0.6c0.4-0.5,0.7-1,1-1.5c4-7,8.1-14,12.1-21C282.3,353.7,283.2,353,282.5,352.4z"/>
			<path class="st1" d="M280.4,404.7c-0.7-0.6-1.5,0.4-2.2,0.9c-2.5,1.9-4.7,4.2-6.8,6.6c-2.3,2.6-4.4,5.3-6.1,8.4
				c-0.5,0.9-0.9,1.8-1,2.8c0,1.4,0.9,2,2.1,1.4c0.6-0.3,1-0.8,1.5-1.3c2.1-2.4,3.9-5,5.7-7.6c2.1-3,4.2-6,6.2-9
				C280.1,406.2,281.2,405.4,280.4,404.7z"/>
			<path class="st1" d="M138.2,273.3c5.1,4,10.4,7.6,16.1,10.7c0.5,0.2,1,0.8,1.5,0.3c0.5-0.5-0.2-1-0.5-1.4
				c-0.3-0.4-0.7-0.8-1.1-1.2c-1.8-1.8-3.5-3.6-5.4-5.2c-2.6-2.3-5.3-4.5-8-6.6c-0.7-0.6-1.5-1-2.5-1c-1.4,0-2.2,1.2-1.7,2.6
				C136.9,272.2,137.6,272.8,138.2,273.3z"/>
			<path class="st1" d="M139.8,280.9c5.6,4.3,11.5,8.2,17.7,11.5c0.4,0.2,0.8,0.3,1.2,0.4c0.2,0.1,0.3-0.1,0.4-0.3
				c0-0.5-0.4-0.7-0.7-0.9c-5.3-4.6-10.6-9.1-16.2-13.4c-0.8-0.6-1.6-1.2-2.6-1.7c-0.7-0.3-1.4-0.4-2,0.2c-0.5,0.6-0.3,1.3,0.1,1.9
				C138.2,279.6,139,280.3,139.8,280.9z"/>
			<path class="st1" d="M247.2,132.2C247.2,132.3,247.2,132.3,247.2,132.2L247.2,132.2z"/>
			<path class="st1" d="M254.3,150.7c0.2,0.4,0.5,0.7,0.8,1c0.8,0.7,1.6,0.8,2.3,0.4c0.7-0.4,1-1.2,0.7-2.2
				c-0.3-0.8-0.7-1.7-1.2-2.4c-2.8-4.8-5.6-9.5-7.9-14.5c-0.2-0.4-0.4-0.8-0.6-1.1c-0.2-0.3-0.4-0.5-0.7-0.4
				c-0.3,0.1-0.4,0.5-0.4,0.8c0,0,0,0,0,0c0.1,0.6,0.1,0.8,0.1,1.1C248.5,139.5,250.8,145.4,254.3,150.7z"/>
			<path class="st1" d="M247.2,132.2C247.2,132.2,247.2,132.2,247.2,132.2C247.2,132.1,247.2,132.1,247.2,132.2
				C247.2,132.1,247.2,132.2,247.2,132.2z"/>
			<path class="st1" d="M264.2,453.6c0.6,0.3,1.2,0.1,1.7-0.3c0.2-0.2,0.5-0.4,0.6-0.6c3.8-4.5,7.3-9.2,10.6-14.2
				c0.3-0.5,0.9-1.1,0.3-1.6c-0.6-0.5-1.1,0.2-1.6,0.5c-3.6,2.7-6.7,5.8-9.6,9.2c-0.9,1.1-1.8,2.2-2.4,3.4c-0.3,0.6-0.6,1.2-0.7,1.9
				C263.2,452.7,263.5,453.3,264.2,453.6z"/>
			<path class="st1" d="M146.7,327.6c-0.6-0.2-1.2-0.1-1.6,0.4c-0.5,0.6-0.5,1.3,0,1.9c0.3,0.5,0.8,0.9,1.2,1.4
				c0.4,0.4,0.9,0.8,1.3,1.2c-0.3-0.1-0.6-0.2-0.9-0.3c-0.9-0.2-1.7,0.1-2.2,0.8c-0.6,0.8-0.4,1.6,0.1,2.4c0.2,0.3,0.4,0.5,0.6,0.7
				c0.3,0.3,0.3,0.6,0,1c-1.1,1.6-1.1,2.4,0.1,3.8c0.9,1.1,2,2,3.1,2.8c3.8,2.6,7.7,4.9,11.7,7.2c3.4,2,6.8,3.9,10.4,5.4
				c1.4,0.6,2.8,1.1,4.3,1.4c0.3,0.1,0.6,0.1,0.7-0.3c0.1-0.3-0.1-0.5-0.3-0.6c-0.3-0.2-0.6-0.4-0.9-0.6
				c-5.4-3.6-10.7-7.1-16.1-10.7c-0.3-0.2-0.9-0.3-0.8-1c0.3,0.2,0.6,0.4,1,0.5c2.6,1.6,5.2,3.2,8,4.4c0.8,0.4,1.7,0.7,2.6,0.9
				c0.3,0.1,0.6,0.1,0.8-0.2c0.2-0.3-0.1-0.6-0.3-0.8c-0.9-0.9-1.9-1.7-2.8-2.6c-4.1-3.5-8.7-6.5-13-9.8c-1.1-0.8-2.2-1.5-3.1-2.6
				c0.5,0.2,1,0.5,1.5,0.8c2.8,1.5,5.6,3.1,8.5,4.6c0.5,0.3,1.1,0.8,1.8,0.4c0.1-0.4-0.1-0.6-0.2-0.7c-4.2-4.1-8.5-8-13.6-11
				C147.9,328,147.3,327.8,146.7,327.6z"/>
			<path class="st1" d="M251,295.2c0.6,0,1.1-0.3,1.5-0.7c4.1-3.6,8.2-7.2,12-11.2c0.3-0.3,0.9-0.7,0.6-1.2c-0.4-0.7-1-0.1-1.5-0.1
				c-0.1,0-0.2,0.1-0.3,0.1c-5.2,2.1-9.4,5.5-12.5,10.1c-0.3,0.5-0.7,1-0.7,1.7C249.9,294.6,250.2,295.1,251,295.2z"/>
			<path class="st1" d="M160,377.5c-1.5,0-2.5,1.4-2,2.8c0.3,0.8,0.9,1.3,1.5,1.8c3.1,2.4,6.6,3.8,10.2,5c0.3,0.1,0.6,0.1,0.9,0.1
				c0.5,0,0.8-0.4,0.6-0.9c-0.1-0.3-0.3-0.5-0.5-0.8c-2.6-3-5.5-5.6-9.1-7.5C161.1,377.7,160.6,377.5,160,377.5z"/>
			<path class="st1" d="M145.5,325.5c2.6,2.2,5.5,3.7,8.5,5.2c0.3,0.2,0.8,0.3,1-0.1c0.2-0.4,0-0.7-0.3-1c-2.3-2.5-4.8-4.9-7.7-6.7
				c-0.5-0.3-1-0.5-1.5-0.5c-0.9,0-1.4,0.8-1.2,1.7C144.6,324.6,145.1,325.1,145.5,325.5z"/>
			<path class="st1" d="M140,268.5c1.9,1.9,4.3,3.1,6.7,4.4c0.2,0.1,0.3,0.1,0.5,0.2c0.6,0,0.8-0.2,0.6-0.8
				c-0.1-0.2-0.2-0.5-0.3-0.6c-1.7-2.3-3.7-4.4-5.9-6.2c-0.4-0.3-0.9-0.6-1.5-0.6c-1,0-1.6,0.9-1.3,1.9
				C139,267.5,139.5,268,140,268.5z"/>
			<path class="st1" d="M262.7,151.6c0.5,0.5,1,0.7,1.7,0.3c0.5-0.3,0.7-0.8,0.7-1.4c0-0.2-0.1-0.5-0.1-0.7c-0.6-2.2-1.7-4.2-3-6
				c-0.2-0.3-0.5-0.5-0.8-0.7c-0.4-0.2-0.7-0.1-0.8,0.3c-0.1,0.3-0.1,0.6-0.1,0.9c0.2,2.2,0.8,4.4,1.9,6.4
				C262.2,151.1,262.4,151.4,262.7,151.6z"/>
		</g>
	</g>
</g>
</svg>
